<?xml version="1.0" encoding="utf-8"?>
<!-- Generator: Adobe Illustrator 19.2.1, SVG Export Plug-In . SVG Version: 6.00 Build 0)  -->
<svg version="1.1" id="layer" xmlns="http://www.w3.org/2000/svg" xmlns:xlink="http://www.w3.org/1999/xlink" x="0px" y="0px"
	 viewBox="0 0 652 652" style="enable-background:new 0 0 652 652;" xml:space="preserve">
<style type="text/css">
	.st0{clip-path:url(#SVGID_2_);}
	.st1{clip-path:url(#SVGID_2_);fill:#034EA2;}
	.st2{clip-path:url(#SVGID_2_);fill:#9DA844;}
	.st3{clip-path:url(#SVGID_2_);fill:#FFDA00;}
	.st4{clip-path:url(#SVGID_2_);fill:#EDC0BF;}
	.st5{clip-path:url(#SVGID_2_);fill:#D5D10F;}
	.st6{clip-path:url(#SVGID_2_);fill:#00B2E9;}
	.st7{clip-path:url(#SVGID_2_);fill:#F5E882;}
	.st8{clip-path:url(#SVGID_2_);fill:#ABE1FA;}
	.st9{clip-path:url(#SVGID_2_);fill:#F68B1F;}
	.st10{clip-path:url(#SVGID_2_);fill:#EE478A;}
	.st11{clip-path:url(#SVGID_2_);fill:#FFFFFF;}
	.st12{clip-path:url(#SVGID_2_);fill:#DCDDDE;}
</style>
<g>
	<path d="M41,185.3c0,0-14.9,0-14.9,14.9v250.9c0,0,0,14.9,14.9,14.9h570.3c0,0,14.9,0,14.9-14.9V200.1c0,0,0-14.9-14.9-14.9H41z"/>
</g>
<g>
	<defs>
		<path id="SVGID_1_" d="M41,185.3c0,0-14.9,0-14.9,14.9v250.9c0,0,0,14.9,14.9,14.9h570.3c0,0,14.9,0,14.9-14.9V200.2
			c0,0,0-14.9-14.9-14.9H41z"/>
	</defs>
	<clipPath id="SVGID_2_">
		<use xlink:href="#SVGID_1_"  style="overflow:visible;"/>
	</clipPath>
	<path class="st0" d="M647.8,395.9c0,4.7-3.8,8.5-8.5,8.5H34.6c-4.7,0-8.5-3.8-8.5-8.5V257c0-4.7,3.8-8.5,8.5-8.5h604.7
		c4.7,0,8.5,3.8,8.5,8.5V395.9z"/>
	<polygon class="st1" points="310.9,314 310.9,347.2 284.7,328.6 	"/>
	<polygon class="st2" points="258.7,314 258.7,347.2 284.9,328.6 	"/>
	<polygon class="st3" points="284.9,280.5 251,299.6 284.9,299.5 	"/>
	<polygon class="st4" points="284.9,280.5 318.7,299.6 284.9,299.5 	"/>
	<polygon class="st5" points="284.9,328.6 251.1,352.3 284.9,352.3 	"/>
	<polygon class="st6" points="284.9,328.6 318.7,352.3 284.9,352.3 	"/>
	<polygon class="st7" points="251.1,352.3 284.8,352.3 284.8,375.4 	"/>
	<polygon class="st8" points="318.6,352.3 284.9,352.3 284.9,375.4 	"/>
	<polygon class="st9" points="251.1,299.5 285,299.5 285,318.3 	"/>
	<polygon class="st10" points="318.8,299.5 284.9,299.5 284.9,318.3 	"/>
	<polygon class="st11" points="318.7,352.4 318.7,299.5 284.9,318.3 251.1,299.5 251.1,352.4 258.7,357.5 258.7,314 284.9,328.5 
		311,314 311,357.5 	"/>
	<path class="st11" d="M418.3,333.2c2.9-1.1,5.3-2.9,7.2-5.3c2.3-2.9,3.5-6.4,3.5-10.4c0-2.6-0.5-5-1.3-7.1c-0.9-2.1-2.3-4-4-5.6
		c-1.8-1.5-3.9-2.7-6.4-3.6c-2.5-0.8-5.3-1.2-8.5-1.2h-21.9V358h7.7v-50.6h14.2c4.1,0,7.2,0.9,9.4,2.6c2.1,1.7,3.1,4.1,3.1,7.5
		c0,3.3-1,5.8-3.1,7.4c-2.1,1.8-5.3,2.6-9.4,2.6h-9.4v7.3h11.3l10.8,23.1h8.4L418.3,333.2z"/>
	<polygon class="st11" points="435.5,300.1 435.5,307.5 453,307.5 453,358 460.6,358 460.6,307.5 478.1,307.5 478.1,300.1 	"/>
	<path class="st11" d="M355.3,300.1h-6.4L326.7,358h8.1l7-18.1l21.1,0.1l7,18h8L355.3,300.1z M344.3,333l7.8-20.6l8,20.6H344.3z"/>
	<path class="st11" d="M239.6,335.5c-0.8-1.9-1.9-3.6-3.3-5.1c-1.4-1.4-3.1-2.6-5-3.6c-1.9-0.9-4.1-1.6-6.4-1.9l-10.4-1.3
		c-1.1-0.1-2.2-0.4-3.3-0.8c-1-0.3-1.8-0.8-2.5-1.4c-0.7-0.6-1.2-1.3-1.7-2.2c-0.4-0.9-0.6-2-0.6-3.4c0-1.5,0.3-2.7,0.8-3.7
		c0.6-1.1,1.4-2.1,2.3-2.8c1.1-1,2.5-1.7,4-2.1c1.7-0.5,3.4-0.7,5.2-0.7c2.3,0,4.4,0.4,6.3,1.1c1.8,0.7,3.2,1.7,4.2,3
		c0.8,0.9,1.3,1.8,1.7,2.7c0.4,1,0.7,2.1,0.9,3.3l0.2,1.5h7.7l-0.2-1.9c-0.2-2.2-0.7-4.1-1.5-5.8c-0.8-1.7-1.9-3.2-3.1-4.7
		c-1.7-2-4.1-3.6-7.1-4.8c-2.9-1.2-6-1.8-9.2-1.8c-2.8,0-5.5,0.5-8,1.3c-2.6,0.9-4.9,2.2-6.8,3.9c-1.5,1.4-2.8,3-3.8,4.8
		c-1.1,1.9-1.6,4.2-1.6,6.8c0,2.3,0.4,4.4,1.2,6.2c0.8,1.8,1.9,3.4,3.2,4.7c1.3,1.3,3,2.3,4.8,3.1c1.8,0.7,3.7,1.2,5.9,1.5l10.2,1.3
		c1.4,0.2,2.8,0.6,3.9,1.1c1.1,0.6,2.1,1.2,2.9,2c0.8,0.8,1.4,1.7,1.8,2.6c0.4,0.9,0.6,2,0.6,3c0,1.5-0.2,2.7-0.7,3.8
		c-0.5,1.1-1.2,2-2,2.7c-1.3,1.2-2.9,2.1-4.8,2.7c-2,0.6-4.2,0.9-6.4,0.9c-2.1,0-4.2-0.4-6-1c-1.8-0.6-3.4-1.6-4.7-2.9
		c-0.9-0.9-1.7-2-2.3-3.3c-0.6-1.3-1-2.6-1.2-4l-0.2-1.6h-7.8l0.2,2c0.2,2.3,0.8,4.5,1.8,6.5c0.9,2,2.2,3.8,3.7,5.4
		c2,2.1,4.5,3.8,7.4,4.8c2.8,1,6,1.6,9.3,1.6c3.4,0,6.5-0.5,9.4-1.4c2.9-1,5.4-2.4,7.5-4.4c1.4-1.4,2.6-3,3.5-4.9
		c0.9-1.9,1.4-4.2,1.4-6.8C240.8,339.4,240.4,337.4,239.6,335.5"/>
	<polygon class="st11" points="553.2,358.2 558.3,358.2 580.7,299.8 574.9,299.8 555.8,349.9 536.3,299.8 493.7,299.8 493.7,305.2 
		512,305.2 512,358.2 517.6,358.2 517.6,305.2 532.7,305.2 	"/>
	<polygon class="st12" points="310.9,314 310.9,357.6 318.7,352.4 318.7,299.5 284.9,318.4 284.9,328.5 	"/>
	<path class="st11" d="M71.5,326.4c-2.5-0.9-3.3-2.9-3.3-4.9V321c0-3.3,1.9-5.2,5.7-5.2h1.9c3,0,4.8,1.3,4.8,4.4
		c0,0.7-0.4,1.4-1.4,1.4c-1,0-1.4-0.7-1.4-1.4c0-1.2-0.9-1.8-2.1-1.8h-1.9c-2.1,0-2.9,0.8-2.9,2.6v0.5c0,1.2,0.7,2,1.6,2.3l5.3,1.9
		c2.3,0.8,3.4,2.5,3.4,5v1.1c0,3.3-1.9,5.5-5.7,5.5h-2.8c-3,0-4.8-1.3-4.8-4.4c0-0.7,0.4-1.4,1.4-1.4c1,0,1.4,0.7,1.4,1.4
		c0,1.3,0.9,1.8,2.1,1.8h2.8c2,0,3-1.1,3-2.8v-1.1c0-1.3-0.6-2-1.5-2.4L71.5,326.4z"/>
	<path class="st11" d="M91.1,321.5c3,0,4.8,1.9,4.8,4.6v9.5c0,0.7-0.4,1.4-1.4,1.4H89c-2.7,0-4.5-1.3-4.5-4v-2.3c0-2.7,1.8-4,4.5-4
		h4.2v-0.6c0-1.5-0.9-2.1-2.1-2.1h-3.9c-0.7,0-1.3-0.4-1.3-1.2c0-0.9,0.6-1.3,1.3-1.3H91.1z M93.2,334.5v-5.3H89
		c-1.2,0-1.8,0.6-1.8,1.5v2.2c0,0.9,0.6,1.5,1.8,1.5H93.2z"/>
	<path class="st11" d="M114.5,326.9c0-1.8-0.8-2.9-2.8-2.9H110v11.9c0,0.7-0.4,1.4-1.3,1.4c-1,0-1.3-0.7-1.3-1.4V324h-4.5v11.9
		c0,0.7-0.4,1.4-1.3,1.4c-1,0-1.3-0.7-1.3-1.4v-13c0-0.8,0.4-1.4,1.3-1.4h10.3c3.7,0,5.5,2.1,5.5,5.4v9c0,0.7-0.4,1.4-1.3,1.4
		c-1,0-1.3-0.7-1.3-1.4V326.9z"/>
	<path class="st11" d="M125.4,337.3c-2.7,0-4.4-1.1-4.4-3.6c0-0.8,0.3-1.4,1.3-1.4c1,0,1.2,0.6,1.3,1.4c0,0.7,0.7,1.2,1.7,1.2h2.4
		c1.4,0,1.9-0.7,1.9-1.6v-1.1c0-0.7-0.4-1.1-1.1-1.3l-4.7-1.3c-1.8-0.5-2.7-1.7-2.7-3.7v-0.7c0-2.7,1.5-4,4.5-4h1.7
		c2.7,0,4.4,1.1,4.4,3.6c0,0.8-0.3,1.4-1.3,1.4c-1,0-1.3-0.6-1.3-1.4c0-0.7-0.6-1.2-1.7-1.2h-1.7c-1.5,0-1.9,0.7-1.9,1.6v0.7
		c0,0.6,0.4,1.1,1.1,1.3l4.6,1.3c1.8,0.5,2.7,1.7,2.7,3.7v1.1c0,2.7-1.6,4-4.5,4H125.4z"/>
	<path class="st11" d="M138.6,331.5c0,1.8,0.8,2.9,2.8,2.9h3.6v-11.9c0-0.7,0.3-1.4,1.3-1.4c1,0,1.3,0.7,1.3,1.4v13.1
		c0,0.7-0.4,1.4-1.3,1.4h-4.9c-3.7,0-5.5-2.1-5.5-5.4v-9c0-0.7,0.4-1.4,1.3-1.4c1,0,1.3,0.7,1.3,1.4V331.5z"/>
	<path class="st11" d="M161.2,326.9c0-1.8-0.8-2.9-2.8-2.9h-3.6v11.9c0,0.7-0.3,1.4-1.3,1.4c-1,0-1.3-0.7-1.3-1.4v-13
		c0-0.8,0.4-1.4,1.3-1.4h4.9c3.7,0,5.5,2.1,5.5,5.4v9c0,0.7-0.4,1.4-1.3,1.4c-1,0-1.3-0.7-1.3-1.4V326.9z"/>
	<path class="st11" d="M179.6,338.6c0,3.3-1.9,5.8-5.6,5.8h-3.3c-0.7,0-1.3-0.3-1.3-1.3c0-0.9,0.6-1.3,1.3-1.3h3.3
		c2,0,2.9-1.3,2.9-3.3V337h-3.6c-3.7,0-5.5-2.1-5.5-5.4v-4.2c0-3.3,1.8-5.8,5.6-5.8h4.8c1,0,1.4,0.7,1.4,1.4V338.6z M173.3,324
		c-2,0-2.9,1.4-2.9,3.3v4.2c0,1.8,0.8,2.9,2.8,2.9h3.6V324H173.3z"/>
	<path class="st11" d="M582.6,301.3v-1.2h6.4v1.2h-2.4v6.2h-1.5v-6.2H582.6z M592.4,300.1l1.9,5.3l1.9-5.3h2.1v7.5H597v-6l-2.1,6
		h-1.2l-2.1-6v6h-1.4v-7.5H592.4z"/>
</g>
</svg>
